# xmcd
#
# Track frame offsets: 
#        150
#        24900
#        53567
#        76302
#        121292
#        142630
#        171957
#        208755
#        244684
#
# Disc length: 4125 seconds
#
# Revision: 0
# Processed by: cddbd v1.4PL0 Copyright (c) Steve Scherf et al.
# Submitted via: ExactAudioCopy v0.90a11
#
DISCID=69101b09
DTITLE=Bryan Lee - Bryan Lee's Boolegs from South America
DYEAR=1900
DGENRE=
TTITLE0=Dope Smokin' Blues
TTITLE1=Braille Blues Daddy
TTITLE2=Baby Scratch my Back
TTITLE3=When a Guitar Plays the Blues
TTITLE4=Ain't Doin' too Bad
TTITLE5=You Don't Have to Go
TTITLE6=(Tribute to the) Boogie Men
TTITLE7=St. James Infirmary
TTITLE8=Mojo/Memphis Bound
EXTD=
EXTT0=
EXTT1=
EXTT2=
EXTT3=
EXTT4=
EXTT5=
EXTT6=
EXTT7=
EXTT8=
PLAYORDER=
